<svg version="1" xmlns="http://www.w3.org/2000/svg" width="346.667" height="346.667" viewBox="0 0 260.000000 260.000000"><path d="M164.2 55.5c-8.2 1.8-13.8 5.2-19.5 11.5-10.4 11.6-13.2 31.5-6.6 48.3 3 7.6 11.2 17.8 24.5 30.2 14.5 13.6 17.4 17.4 17.4 23 0 4.4-2.2 7.5-5.3 7.5-2.5 0-5.5-4.7-6.7-10.8-2.1-9.9-4-10.7-20.4-9.3-13.7 1.2-15.2 2.3-15 11.1l.1 5.9-11.6.3c-6.4.2-11.7.3-11.8.3-.1 0-4.4-25.4-9.6-56.4-8.2-48.8-9.8-56.6-11.6-58.5-2-1.9-3.4-2.1-16.8-2.4-17.3-.4-20.8.1-22.9 3.3-2.3 3.5-25.6 141.9-24.4 145 1.5 3.9 4.1 4.5 18.3 4.5 17.2 0 16.8.3 19.7-17.3 1.1-6.9 2-12.9 2-13.2 0-.3 2-.5 4.5-.5s4.5.3 4.5.7c0 1.9 4 25.2 4.6 26.7.3.9 1.4 2.1 2.4 2.6 1 .6 13.6 1 29 1h27.1l2.5-2.5c1.9-1.9 2.4-3.5 2.4-7.3v-4.8l5.8 5.7c8.4 8.1 14.5 10.3 28.7 10.3 13 0 19.6-2.1 26.8-8.4l4.5-4 1.1 4.5c.6 2.5 1.9 4.9 3 5.5 1.1.5 7.8 1 15 1 11.6 0 13.3-.2 15-1.9 2.5-2.5 3.4-9 2.9-20.2-.6-12.7-1.3-13.3-16.3-13.7l-11.5-.4v-5.9c0-15.5-9.2-30.6-29.7-48.8-10.9-9.6-14.5-15.1-14.6-21.9-.1-5.5.7-7.2 3.3-7.2 2.3 0 3.8 2.5 5.4 8.9 1.7 6.9 4.3 7.8 16.5 5.7 16.7-2.9 18.1-3.8 18.1-11.4 0-10.2-7.2-24.1-15.5-30.1-9.4-6.7-23.4-9.3-35.3-6.6zm22.8 8.1c4.1 1.2 6.7 2.9 11.1 7.3 4.9 4.9 6.1 6.9 7.9 12.9 3 9.9 2.8 10.3-5.5 11.9-3.9.6-8.5 1.5-10.2 1.8-2.9.5-3.3.3-3.3-1.7-.1-3.2-3.3-9.9-5.9-12.3-1.5-1.3-3.7-2-6.3-2-5.3 0-9.4 4.3-10.4 11-1.5 10.4 2.7 17.6 19.2 33.1 13.9 13 19.9 21 23.4 31.5 4.6 13.5.5 31-9.2 39.3-7.6 6.6-20.5 9.1-31.8 6.2-11.1-2.8-18.7-9.8-22.9-21.1-2-5.2-4.3-16.6-3.6-17.4 1-1 20.1-1.7 20.7-.8.3.6.9 2.9 1.3 5.2.9 6.2 5.6 13 9.8 14.4 4.7 1.6 10.9-.8 13.7-5.4 2.6-4.2 2.6-12.5.1-18-1.1-2.5-8.3-10.4-18.9-21-14.8-14.7-17.5-17.9-20.4-24-3.1-6.7-3.3-7.6-3.3-18.5 0-10.6.2-12 2.8-17.2 3.3-6.6 10-13 16-15.2 5.7-2 19-2 25.7 0zm-91.9 69.1l11.6 69.3H95.4c-11 0-11.4-.1-11.9-2.3-.4-1.9-4.5-28.4-4.5-29.3 0-.8-21-.4-21 .3-.1 2.1-4.9 30.5-5.3 30.9-.2.3-5.3.3-11.3.2l-11-.3L42.2 133c6.4-37.7 11.7-68.8 11.7-69.3.1-.4 6.7-.6 14.8-.5l14.7.3 11.7 69.2zM134 191v11h-22v-22h22v11zm102 0v11h-21v-22h21v11z"/><path d="M65.2 123.1c-1.8 12.8-3.2 24-3.2 24.6 0 .9 2 1.3 6.8 1.3h6.9l-3.4-23.3c-1.8-12.7-3.4-23.9-3.5-24.6-.2-.8-1.8 9.1-3.6 22z"/></svg>